<svg width="42" height="42" viewBox="0 0 42 42" fill="none" xmlns="http://www.w3.org/2000/svg">
<rect x="0.5" y="0.500061" width="41" height="41" rx="20.5" stroke="#F0F2F5"/>
<path d="M21.0167 13.4251C18.2583 13.4251 16.0167 15.6667 16.0167 18.4251V20.8334C16.0167 21.3417 15.8 22.1167 15.5417 22.5501L14.5833 24.1417C13.9917 25.1251 14.4 26.2167 15.4833 26.5834C19.075 27.7834 22.95 27.7834 26.5417 26.5834C27.55 26.2501 27.9917 25.0584 27.4417 24.1417L26.4833 22.5501C26.2333 22.1167 26.0167 21.3417 26.0167 20.8334V18.4251C26.0167 15.6751 23.7667 13.4251 21.0167 13.4251Z" stroke="#475367" stroke-width="1.5" stroke-miterlimit="10" stroke-linecap="round"/>
<path d="M22.5583 13.6667C22.3 13.5917 22.0333 13.5334 21.7583 13.5001C20.9583 13.4001 20.1917 13.4584 19.475 13.6667C19.7167 13.0501 20.3167 12.6167 21.0167 12.6167C21.7167 12.6167 22.3167 13.0501 22.5583 13.6667Z" stroke="#475367" stroke-width="1.5" stroke-miterlimit="10" stroke-linecap="round" stroke-linejoin="round"/>
<path d="M23.5167 26.8834C23.5167 28.2584 22.3917 29.3834 21.0167 29.3834C20.3333 29.3834 19.7 29.1001 19.25 28.6501C18.8 28.2001 18.5167 27.5667 18.5167 26.8834" stroke="#475367" stroke-width="1.5" stroke-miterlimit="10"/>
</svg>
