<svg width="16" height="16" viewBox="0 0 16 16" fill="none" xmlns="http://www.w3.org/2000/svg">
<path d="M13 2.00006H3C2.73478 2.00006 2.48043 2.10542 2.29289 2.29295C2.10536 2.48049 2 2.73484 2 3.00006V13.0001C2 13.2653 2.10536 13.5196 2.29289 13.7072C2.48043 13.8947 2.73478 14.0001 3 14.0001H9.79313C9.92446 14.0003 10.0545 13.9745 10.1759 13.9242C10.2972 13.8739 10.4074 13.8 10.5 13.7069L13.7069 10.5001C13.8 10.4074 13.8738 10.2973 13.9241 10.1759C13.9744 10.0546 14.0002 9.92453 14 9.79319V3.00006C14 2.73484 13.8946 2.48049 13.7071 2.29295C13.5196 2.10542 13.2652 2.00006 13 2.00006ZM6 5.50006H10C10.1326 5.50006 10.2598 5.55274 10.3536 5.64651C10.4473 5.74028 10.5 5.86745 10.5 6.00006C10.5 6.13267 10.4473 6.25985 10.3536 6.35361C10.2598 6.44738 10.1326 6.50006 10 6.50006H6C5.86739 6.50006 5.74021 6.44738 5.64645 6.35361C5.55268 6.25985 5.5 6.13267 5.5 6.00006C5.5 5.86745 5.55268 5.74028 5.64645 5.64651C5.74021 5.55274 5.86739 5.50006 6 5.50006ZM8 10.5001H6C5.86739 10.5001 5.74021 10.4474 5.64645 10.3536C5.55268 10.2598 5.5 10.1327 5.5 10.0001C5.5 9.86745 5.55268 9.74028 5.64645 9.64651C5.74021 9.55274 5.86739 9.50006 6 9.50006H8C8.13261 9.50006 8.25979 9.55274 8.35355 9.64651C8.44732 9.74028 8.5 9.86745 8.5 10.0001C8.5 10.1327 8.44732 10.2598 8.35355 10.3536C8.25979 10.4474 8.13261 10.5001 8 10.5001ZM6 8.50006C5.86739 8.50006 5.74021 8.44738 5.64645 8.35361C5.55268 8.25985 5.5 8.13267 5.5 8.00006C5.5 7.86745 5.55268 7.74028 5.64645 7.64651C5.74021 7.55274 5.86739 7.50006 6 7.50006H10C10.1326 7.50006 10.2598 7.55274 10.3536 7.64651C10.4473 7.74028 10.5 7.86745 10.5 8.00006C10.5 8.13267 10.4473 8.25985 10.3536 8.35361C10.2598 8.44738 10.1326 8.50006 10 8.50006H6ZM10 12.7932V10.0001H12.7937L10 12.7932Z" fill="#0D6EFD"/>
</svg>
