<svg width="16" height="16" viewBox="0 0 16 16" fill="none" xmlns="http://www.w3.org/2000/svg">
<path d="M8 1.50006C6.71442 1.50006 5.45772 1.88128 4.3888 2.59551C3.31988 3.30974 2.48676 4.3249 1.99479 5.51262C1.50282 6.70034 1.37409 8.00727 1.6249 9.26815C1.8757 10.529 2.49477 11.6872 3.40381 12.5963C4.31285 13.5053 5.47104 14.1244 6.73192 14.3752C7.99279 14.626 9.29973 14.4972 10.4874 14.0053C11.6752 13.5133 12.6903 12.6802 13.4046 11.6113C14.1188 10.5423 14.5 9.28564 14.5 8.00006C14.4982 6.27671 13.8128 4.62447 12.5942 3.40588C11.3756 2.18728 9.72335 1.50188 8 1.50006ZM10.3538 9.64631C10.4002 9.69277 10.4371 9.74792 10.4622 9.80861C10.4873 9.86931 10.5003 9.93436 10.5003 10.0001C10.5003 10.0658 10.4873 10.1308 10.4622 10.1915C10.4371 10.2522 10.4002 10.3074 10.3538 10.3538C10.3073 10.4003 10.2521 10.4371 10.1915 10.4623C10.1308 10.4874 10.0657 10.5003 10 10.5003C9.93431 10.5003 9.86925 10.4874 9.80855 10.4623C9.74786 10.4371 9.69271 10.4003 9.64625 10.3538L8 8.70694L6.35375 10.3538C6.3073 10.4003 6.25215 10.4371 6.19145 10.4623C6.13075 10.4874 6.0657 10.5003 6 10.5003C5.93431 10.5003 5.86925 10.4874 5.80855 10.4623C5.74786 10.4371 5.69271 10.4003 5.64625 10.3538C5.5998 10.3074 5.56295 10.2522 5.53781 10.1915C5.51266 10.1308 5.49972 10.0658 5.49972 10.0001C5.49972 9.93436 5.51266 9.86931 5.53781 9.80861C5.56295 9.74792 5.5998 9.69277 5.64625 9.64631L7.29313 8.00006L5.64625 6.35381C5.55243 6.25999 5.49972 6.13274 5.49972 6.00006C5.49972 5.86738 5.55243 5.74013 5.64625 5.64631C5.74007 5.55249 5.86732 5.49978 6 5.49978C6.13268 5.49978 6.25993 5.55249 6.35375 5.64631L8 7.29319L9.64625 5.64631C9.69271 5.59986 9.74786 5.56301 9.80855 5.53786C9.86925 5.51272 9.93431 5.49978 10 5.49978C10.0657 5.49978 10.1308 5.51272 10.1915 5.53786C10.2521 5.56301 10.3073 5.59986 10.3538 5.64631C10.4002 5.69277 10.4371 5.74792 10.4622 5.80861C10.4873 5.86931 10.5003 5.93436 10.5003 6.00006C10.5003 6.06576 10.4873 6.13081 10.4622 6.19151C10.4371 6.25221 10.4002 6.30736 10.3538 6.35381L8.70688 8.00006L10.3538 9.64631Z" fill="#344054"/>
</svg>
