<svg width="42" height="42" viewBox="0 0 42 42" fill="none" xmlns="http://www.w3.org/2000/svg">
<rect x="0.5" y="0.500061" width="41" height="41" rx="20.5" stroke="#F0F2F5"/>
<path d="M28.9422 15.5579L26.4422 13.0579C26.3841 12.9998 26.3152 12.9537 26.2393 12.9222C26.1635 12.8908 26.0821 12.8746 26 12.8746C25.9179 12.8746 25.8365 12.8908 25.7607 12.9222C25.6848 12.9537 25.6159 12.9998 25.5578 13.0579L18.0578 20.5579C17.9998 20.616 17.9538 20.6849 17.9224 20.7608C17.891 20.8367 17.8749 20.918 17.875 21.0001V23.5001C17.875 23.6658 17.9408 23.8248 18.0581 23.942C18.1753 24.0592 18.3342 24.1251 18.5 24.1251H21C21.0821 24.1251 21.1634 24.109 21.2393 24.0776C21.3152 24.0463 21.3841 24.0003 21.4422 23.9422L28.9422 16.4422C29.0003 16.3842 29.0464 16.3153 29.0779 16.2394C29.1093 16.1635 29.1255 16.0822 29.1255 16.0001C29.1255 15.9179 29.1093 15.8366 29.0779 15.7607C29.0464 15.6848 29.0003 15.6159 28.9422 15.5579ZM20.7414 22.8751H19.125V21.2587L24.125 16.2587L25.7414 17.8751L20.7414 22.8751ZM26.625 16.9915L25.0086 15.3751L26 14.3837L27.6164 16.0001L26.625 16.9915ZM28.5 20.3751V27.2501C28.5 27.5816 28.3683 27.8995 28.1339 28.1339C27.8995 28.3684 27.5815 28.5001 27.25 28.5001H14.75C14.4185 28.5001 14.1005 28.3684 13.8661 28.1339C13.6317 27.8995 13.5 27.5816 13.5 27.2501V14.7501C13.5 14.4185 13.6317 14.1006 13.8661 13.8662C14.1005 13.6318 14.4185 13.5001 14.75 13.5001H21.625C21.7908 13.5001 21.9497 13.5659 22.0669 13.6831C22.1842 13.8003 22.25 13.9593 22.25 14.1251C22.25 14.2908 22.1842 14.4498 22.0669 14.567C21.9497 14.6842 21.7908 14.7501 21.625 14.7501H14.75V27.2501H27.25V20.3751C27.25 20.2093 27.3158 20.0503 27.4331 19.9331C27.5503 19.8159 27.7092 19.7501 27.875 19.7501C28.0408 19.7501 28.1997 19.8159 28.3169 19.9331C28.4342 20.0503 28.5 20.2093 28.5 20.3751Z" fill="#343330"/>
</svg>
