<svg width="9" height="9" viewBox="0 0 9 9" fill="none" xmlns="http://www.w3.org/2000/svg">
<path d="M7.32971 6.7328C7.40897 6.81206 7.45349 6.91955 7.45349 7.03163C7.45349 7.14371 7.40897 7.25121 7.32971 7.33046C7.25046 7.40971 7.14297 7.45424 7.03088 7.45424C6.9188 7.45424 6.81131 7.40971 6.73205 7.33046L4.49998 5.09769L2.26721 7.32976C2.18796 7.40901 2.08047 7.45354 1.96838 7.45354C1.8563 7.45354 1.74881 7.40901 1.66956 7.32976C1.5903 7.2505 1.54578 7.14301 1.54578 7.03093C1.54578 6.91885 1.5903 6.81136 1.66956 6.7321L3.90233 4.50003L1.67026 2.26726C1.591 2.188 1.54648 2.08051 1.54648 1.96843C1.54648 1.85635 1.591 1.74886 1.67026 1.6696C1.74951 1.59035 1.857 1.54582 1.96909 1.54582C2.08117 1.54582 2.18866 1.59035 2.26791 1.6696L4.49998 3.90237L6.73276 1.66925C6.81201 1.59 6.9195 1.54547 7.03159 1.54547C7.14367 1.54547 7.25116 1.59 7.33041 1.66925C7.40967 1.7485 7.45419 1.856 7.45419 1.96808C7.45419 2.08016 7.40967 2.18765 7.33041 2.26691L5.09764 4.50003L7.32971 6.7328Z" fill="#343330"/>
</svg>
