<svg width="16" height="16" viewBox="0 0 16 16" fill="none" xmlns="http://www.w3.org/2000/svg">
<path d="M8.96125 1.11571C8.89961 1.06446 8.82656 1.02879 8.74824 1.01169C8.66993 0.994592 8.58865 0.996574 8.51127 1.01747C8.43388 1.03836 8.36265 1.07755 8.30359 1.13174C8.24452 1.18593 8.19935 1.25353 8.17188 1.32883L6.79688 5.10446L5.28687 3.64133C5.23616 3.59215 5.17561 3.55427 5.10919 3.53019C5.04278 3.50611 4.97201 3.49637 4.90157 3.50163C4.83112 3.50689 4.76258 3.52701 4.70047 3.56068C4.63837 3.59435 4.5841 3.64079 4.54125 3.69696C3.1875 5.47071 2.5 7.25508 2.5 9.00008C2.5 10.4588 3.07946 11.8577 4.11091 12.8892C5.14236 13.9206 6.54131 14.5001 8 14.5001C9.45869 14.5001 10.8576 13.9206 11.8891 12.8892C12.9205 11.8577 13.5 10.4588 13.5 9.00008C13.5 5.28446 10.3256 2.25008 8.96125 1.11571ZM11.4931 9.58383C11.3635 10.308 11.0151 10.9751 10.4948 11.4953C9.9745 12.0154 9.30734 12.3637 8.58313 12.4932C8.55567 12.4979 8.52786 12.5002 8.5 12.5001C8.37458 12.5 8.25375 12.4529 8.16148 12.3679C8.06921 12.283 8.01223 12.1665 8.00185 12.0415C7.99146 11.9165 8.02843 11.7922 8.10542 11.6931C8.18242 11.5941 8.2938 11.5277 8.4175 11.507C9.45312 11.3326 10.3319 10.4538 10.5075 9.41633C10.5297 9.28555 10.603 9.16894 10.7112 9.09217C10.8193 9.0154 10.9536 8.98475 11.0844 9.00696C11.2152 9.02917 11.3318 9.10243 11.4085 9.21061C11.4853 9.3188 11.516 9.45305 11.4937 9.58383H11.4931Z" fill="#D42620"/>
</svg>
