<svg width="33" height="32" viewBox="0 0 33 32" fill="none" xmlns="http://www.w3.org/2000/svg">
<path d="M26.5 7.00006H23.035L21.3312 4.44506C21.24 4.30825 21.1164 4.19606 20.9714 4.11844C20.8264 4.04082 20.6645 4.00016 20.5 4.00006H12.5C12.3355 4.00016 12.1736 4.04082 12.0286 4.11844C11.8836 4.19606 11.76 4.30825 11.6687 4.44506L9.96375 7.00006H6.5C5.70435 7.00006 4.94129 7.31613 4.37868 7.87874C3.81607 8.44135 3.5 9.20441 3.5 10.0001V24.0001C3.5 24.7957 3.81607 25.5588 4.37868 26.1214C4.94129 26.684 5.70435 27.0001 6.5 27.0001H26.5C27.2956 27.0001 28.0587 26.684 28.6213 26.1214C29.1839 25.5588 29.5 24.7957 29.5 24.0001V10.0001C29.5 9.20441 29.1839 8.44135 28.6213 7.87874C28.0587 7.31613 27.2956 7.00006 26.5 7.00006ZM27.5 24.0001C27.5 24.2653 27.3946 24.5196 27.2071 24.7072C27.0196 24.8947 26.7652 25.0001 26.5 25.0001H6.5C6.23478 25.0001 5.98043 24.8947 5.79289 24.7072C5.60536 24.5196 5.5 24.2653 5.5 24.0001V10.0001C5.5 9.73484 5.60536 9.48049 5.79289 9.29295C5.98043 9.10542 6.23478 9.00006 6.5 9.00006H10.5C10.6647 9.00017 10.8268 8.95961 10.9721 8.88197C11.1173 8.80434 11.2411 8.69205 11.3325 8.55506L13.035 6.00006H19.9638L21.6675 8.55506C21.7589 8.69205 21.8827 8.80434 22.0279 8.88197C22.1732 8.95961 22.3353 9.00017 22.5 9.00006H26.5C26.7652 9.00006 27.0196 9.10542 27.2071 9.29295C27.3946 9.48049 27.5 9.73484 27.5 10.0001V24.0001ZM16.5 11.0001C15.4122 11.0001 14.3488 11.3226 13.4444 11.927C12.5399 12.5313 11.8349 13.3903 11.4187 14.3953C11.0024 15.4003 10.8935 16.5062 11.1057 17.5731C11.3179 18.64 11.8417 19.62 12.6109 20.3891C13.3801 21.1583 14.3601 21.6822 15.427 21.8944C16.4939 22.1066 17.5998 21.9977 18.6048 21.5814C19.6098 21.1651 20.4687 20.4602 21.0731 19.5557C21.6774 18.6512 22 17.5879 22 16.5001C21.9983 15.0419 21.4184 13.6439 20.3873 12.6128C19.3562 11.5817 17.9582 11.0017 16.5 11.0001ZM16.5 20.0001C15.8078 20.0001 15.1311 19.7948 14.5555 19.4102C13.9799 19.0256 13.5313 18.479 13.2664 17.8395C13.0015 17.1999 12.9322 16.4962 13.0673 15.8172C13.2023 15.1383 13.5356 14.5147 14.0251 14.0252C14.5146 13.5357 15.1383 13.2024 15.8172 13.0673C16.4961 12.9323 17.1999 13.0016 17.8394 13.2665C18.4789 13.5314 19.0256 13.98 19.4101 14.5556C19.7947 15.1311 20 15.8078 20 16.5001C20 17.4283 19.6313 18.3186 18.9749 18.9749C18.3185 19.6313 17.4283 20.0001 16.5 20.0001Z" fill="#344054"/>
</svg>
