<svg width="33" height="32" viewBox="0 0 33 32" fill="none" xmlns="http://www.w3.org/2000/svg">
<path d="M28.5 19.0001V26.0001C28.5 26.5305 28.2893 27.0392 27.9142 27.4143C27.5391 27.7893 27.0304 28.0001 26.5 28.0001H6.5C5.96957 28.0001 5.46086 27.7893 5.08579 27.4143C4.71071 27.0392 4.5 26.5305 4.5 26.0001V19.0001C4.5 18.7348 4.60536 18.4805 4.79289 18.293C4.98043 18.1054 5.23478 18.0001 5.5 18.0001C5.76522 18.0001 6.01957 18.1054 6.20711 18.293C6.39464 18.4805 6.5 18.7348 6.5 19.0001V26.0001H26.5V19.0001C26.5 18.7348 26.6054 18.4805 26.7929 18.293C26.9804 18.1054 27.2348 18.0001 27.5 18.0001C27.7652 18.0001 28.0196 18.1054 28.2071 18.293C28.3946 18.4805 28.5 18.7348 28.5 19.0001ZM12.2075 10.7076L15.5 7.41381V19.0001C15.5 19.2653 15.6054 19.5196 15.7929 19.7072C15.9804 19.8947 16.2348 20.0001 16.5 20.0001C16.7652 20.0001 17.0196 19.8947 17.2071 19.7072C17.3946 19.5196 17.5 19.2653 17.5 19.0001V7.41381L20.7925 10.7076C20.9801 10.8952 21.2346 11.0006 21.5 11.0006C21.7654 11.0006 22.0199 10.8952 22.2075 10.7076C22.3951 10.5199 22.5006 10.2654 22.5006 10.0001C22.5006 9.7347 22.3951 9.4802 22.2075 9.29256L17.2075 4.29256C17.1146 4.19959 17.0043 4.12583 16.8829 4.0755C16.7615 4.02518 16.6314 3.99928 16.5 3.99928C16.3686 3.99928 16.2385 4.02518 16.1171 4.0755C15.9957 4.12583 15.8854 4.19959 15.7925 4.29256L10.7925 9.29256C10.6049 9.4802 10.4994 9.7347 10.4994 10.0001C10.4994 10.2654 10.6049 10.5199 10.7925 10.7076C10.9801 10.8952 11.2346 11.0006 11.5 11.0006C11.7654 11.0006 12.0199 10.8952 12.2075 10.7076Z" fill="#344054"/>
</svg>
